{"title":"A Lonely Place for Dying.Rus.mkv","uid":8922020,"size":3839967642,"categoryP":"video","categoryS":"hd___movies","magnet":"?xt=urn:btih:e04550499745bfaa6f92d85ca4599339bca1f8b5&amp;dn=A+Lonely+Place+for+Dying.Rus.mkv&amp;tr=udp%3A%2F%2Ftracker.openbittorrent.com%3A80&amp;tr=udp%3A%2F%2Fopen.demonii.com%3A1337&amp;tr=udp%3A%2F%2Ftracker.coppersurfer.tk%3A6969&amp;tr=udp%3A%2F%2Fexodus.desync.com%3A6969","seeders":1,"leechers":0,"uploader":"ABSTAIN","files":1,"time":1379275859,"description":"[img]http://cinemania.cc/torrents/images/6590.jpg{/img]\n &lt;a href=&quot;\nhttp://www.imdb.com/title/tt1161861/&quot; rel=&quot;nofollow&quot; target=&quot;_NEW&quot;&gt;\nhttp://www.imdb.com/title/tt1161861/&lt;/a&gt;\n\n\nGeneral\nComplete name : D:TORRENTSA Lonely Place for Dying.Rus.mkv\nFormat : Matroska\nFormat version : Version 2\nFile size : 3.58 GiB\nDuration : 1h 33mn\nOverall bit rate : 5 492 Kbps\nEncoded date : UTC 2013-09-15 10:18:46\nWriting application : mkvmerge v4.0.0 ('The Stars were mine') built on Jun 6 2010 16:18:42\nWriting library : libebml v1.0.0 + libmatroska v1.0.0\n\nVideo\nID : 1\nFormat : AVC\nFormat/Info : Advanced Video Codec\nFormat profile : &lt;a class=&quot;__cf_email__&quot; href=&quot;/cdn-cgi/l/email-protection&quot; data-cfemail=&quot;713c10181f313d425f40&quot;&gt;[email&amp;#160;protected]&lt;/a&gt;&lt;script cf-hash='f9e31' type=&quot;text/javascript&quot;&gt;\n/* &lt;![CDATA[ */!function(){try{var t=&quot;currentScript&quot;in document?document.currentScript:function(){for(var t=document.getElementsByTagName(&quot;script&quot;),e=t.length;e--;)if(t[e].getAttribute(&quot;cf-hash&quot;))return t[e]}();if(t&amp;&amp;t.previousSibling){var e,r,n,i,c=t.previousSibling,a=c.getAttribute(&quot;data-cfemail&quot;);if(a){for(e=&quot;&quot;,r=parseInt(a.substr(0,2),16),n=2;a.length-n;n+=2)i=parseInt(a.substr(n,2),16)^r,e+=String.fromCharCode(i);e=document.createTextNode(e),c.parentNode.replaceChild(e,c)}}}catch(u){}}();/* ]]&gt; */&lt;/script&gt;\nFormat settings, CABAC : No\nFormat settings, ReFrames : 2 frames\nCodec ID : V_MPEG4/ISO/AVC\nDuration : 1h 33mn\nBit rate : 4 103 Kbps\nWidth : 1 280 pixels\nHeight : 530 pixels\nDisplay aspect ratio : 2.40:1\nFrame rate mode : Constant\nFrame rate : 23.976 fps\nColor space : YUV\nChroma subsampling : 4:2:0\nBit depth : 8 bits\nScan type : Progressive\nBits/(Pixel*Frame) : 0.252\nStream size : 2.67 GiB (75%)\nLanguage : English\nDefault : No\nForced : No\nColor primaries : BT.709\nTransfer characteristics : BT.709\nMatrix coefficients : BT.709\n\nAudio #1\nID : 2\nFormat : AC-3\nFormat/Info : Audio Coding 3\nMode extension : CM (complete main)\nFormat settings, Endianness : Big\nCodec ID : A_AC3\nDuration : 1h 33mn\nBit rate mode : Constant\nBit rate : 640 Kbps\nChannel(s) : 2 channels\nChannel positions : Front: L R\nSampling rate : 48.0 KHz\nBit depth : 16 bits\nCompression mode : Lossy\nStream size : 427 MiB (12%)\nTitle : A.Kedrov\nLanguage : Russian\nDefault : Yes\nForced : Yes\n\nAudio #2\nID : 3\nFormat : AC-3\nFormat/Info : Audio Coding 3\nMode extension : CM (complete main)\nFormat settings, Endianness : Big\nCodec ID : A_AC3\nDuration : 1h 33mn\nBit rate mode : Constant\nBit rate : 640 Kbps\nChannel(s) : 2 channels\nChannel positions : Front: L R\nSampling rate : 48.0 KHz\nBit depth : 16 bits\nCompression mode : Lossy\nStream size : 427 MiB (12%)\nTitle : Original\nLanguage : English\nDefault : No\nForced : No\n\nText #1\nID : 4\nFormat : UTF-8\nCodec ID : S_TEXT/UTF8\nCodec ID/Info : UTF-8 Plain Text\nTitle : force subs\nLanguage : Russian\nDefault : Yes\nForced : Yes\n\nText #2\nID : 5\nFormat : UTF-8\nCodec ID : S_TEXT/UTF8\nCodec ID/Info : UTF-8 Plain Text\nTitle : Full subs\nLanguage : Russian\nDefault : No\nForced : No\n","torrent":{"xt":"urn:btih:e04550499745bfaa6f92d85ca4599339bca1f8b5","amp;dn":"A+Lonely+Place+for+Dying.Rus.mkv","amp;tr":["udp%3A%2F%2Ftracker.openbittorrent.com%3A80","udp%3A%2F%2Fopen.demonii.com%3A1337","udp%3A%2F%2Ftracker.coppersurfer.tk%3A6969","udp%3A%2F%2Fexodus.desync.com%3A6969"],"infoHash":"e04550499745bfaa6f92d85ca4599339bca1f8b5","infoHashBuffer":{"type":"Buffer","data":[224,69,80,73,151,69,191,170,111,146,216,92,164,89,147,57,188,161,248,181]},"announce":[],"urlList":[]}}